<svg id="Layer_1" data-name="Layer 1" xmlns="http://www.w3.org/2000/svg" viewBox="0 0 158.67 129.33"><defs><style>.cls-1{fill:#fff;}</style></defs><title>Artboard 7 copy</title><path class="cls-1" d="M7.14,34.88h5.38V28.31l3.07-1.51v8.07h8l-.7,3H15.59V54.58c0,3,1.08,4.25,4.36,4.25h3.28v3H19.9c-4.79,0-7.37-2-7.37-7.1V37.84H7.84Z"/><path class="cls-1" d="M26.62,48.33c0-7.7,5.87-13.88,13.13-13.88,7.05,0,12.54,4.47,12.75,13.94H29.8c0,6,4.41,11,10.49,11a11.86,11.86,0,0,0,8.4-3.28l1.94,2.15a14.8,14.8,0,0,1-10.33,4A13.53,13.53,0,0,1,26.62,48.33ZM30,45.64H49.12c-.59-5.54-4.68-8.34-9.47-8.34A9.91,9.91,0,0,0,30,45.64Z"/><path class="cls-1" d="M79.15,58.13a13.11,13.11,0,0,1-9.9,4.09c-8,0-13.67-6.24-13.67-13.88s5.65-13.88,13.67-13.88a13,13,0,0,1,9.9,4.14V34.88l3.07-1.39v28.3H79.15Zm0-4.14V42.63a11.14,11.14,0,0,0-9.9-5.33c-6.19,0-10.49,5-10.49,11s4.31,11,10.49,11A10.94,10.94,0,0,0,79.15,54Z"/><path class="cls-1" d="M87.76,48.33a13.57,13.57,0,0,1,13.67-13.88,14.56,14.56,0,0,1,10.28,4l-1.94,2.21a11.75,11.75,0,0,0-8.34-3.34c-6.08,0-10.49,5-10.49,11s4.41,11,10.49,11A11.75,11.75,0,0,0,109.77,56l1.94,2.21a14.56,14.56,0,0,1-10.28,4A13.57,13.57,0,0,1,87.76,48.33Z"/><path class="cls-1" d="M116.72,23.58l3.07-1.39V38.75c2.15-3.23,5.7-4.3,9.26-4.3,5.65,0,9.85,3.87,9.85,10.33v17h-3.07V45.21c0-5.11-3.07-7.91-7.59-7.91s-7.43,2.8-8.45,6.62V61.79h-3.07Z"/><path class="cls-1" d="M9.89,120.59l5.33-10.43a18.48,18.48,0,0,0,11.53,4c4.71,0,8.94-1.57,8.94-6.27a5.62,5.62,0,0,0-1-3.29,13.91,13.91,0,0,1-8.71,3c-11.84,0-18.51-9.25-18.51-18.82S14.13,69.93,26,69.93a13.7,13.7,0,0,1,8.63,3V70.55H46.44v31.61a19.43,19.43,0,0,1,1.65,7.69C48.09,120.9,37.74,125,27.54,125,21.66,125,15.46,124.2,9.89,120.59ZM34.6,93.45V84a8.83,8.83,0,0,0-7.06-3.29,8,8,0,1,0,0,16A8.83,8.83,0,0,0,34.6,93.45Z"/><path class="cls-1" d="M68.33,90.16a20.39,20.39,0,1,1,20.39,20.23A20.32,20.32,0,0,1,68.33,90.16Zm28.86,0c0-5.41-3.61-9.18-8.47-9.18s-8.47,3.76-8.47,9.18,3.61,9.18,8.47,9.18S97.19,95.57,97.19,90.16Z"/><path class="cls-1" d="M108.8,102.08l9-6.12c1.57,2.82,3.69,4.78,7.22,4.78,1.65,0,3.06-.39,3.06-1.8s-1.1-2-4.94-3.45l-2-.78c-6.82-2.67-10.35-7.06-10.35-12.63,0-7.22,6-12.16,13.49-12.16,5,0,9.41,1.88,12.39,6.2l-6.75,6.67c-1.49-2.12-3.21-3.53-5.65-3.53-1.57,0-2.82.55-2.82,1.8,0,1.57,1.26,2,5.18,3.53l1.65.63c7.45,2.82,10.51,6.9,10.51,12.71,0,8-6.2,12.47-14.2,12.47C117.74,110.39,112.17,108,108.8,102.08Z"/><polygon class="cls-1" points="52.64 70.55 52.64 109.77 64.48 109.77 64.48 65.57 52.64 70.55"/><path id="orange" class="cls-1" d="M155.68,10.29l-4.86,1.38c-1,9.23-4.56,11.81-6.32,12.52a8.09,8.09,0,0,0,1.06.07c3.08,0,8.87-1.68,10.12-14"/><path id="po" class="cls-1" d="M148.82,11.67l-7.2,2.05V24a5.82,5.82,0,0,0,.88.17c1.76-.71,5.3-3.29,6.32-12.52"/><path id="purple" class="cls-1" d="M149.1,6.18l-7.61,6V24.46a3.55,3.55,0,0,0,1-.27,5.82,5.82,0,0,1-.88-.17V13.72l7.2-2.05a49.88,49.88,0,0,0,.28-5.49"/><path id="blue" class="cls-1" d="M132.22,6.18a50.39,50.39,0,0,0,.28,5.49l7.2,2.05V24a5.82,5.82,0,0,1-.88.17,3.57,3.57,0,0,0,1,.27V12.13Z"/><path id="gb" class="cls-1" d="M132.5,11.67c1,9.24,4.56,11.81,6.32,12.52a5.82,5.82,0,0,0,.88-.17V13.72Z"/><path id="green" class="cls-1" d="M125.64,10.29c1.25,12.29,7,14,10.11,14a8.13,8.13,0,0,0,1.06-.07c-1.76-.71-5.3-3.28-6.32-12.52Z"/></svg>