<svg xmlns="http://www.w3.org/2000/svg" width="148.54" height="118.82" viewBox="0 0 148.54 118.82"><title>logo-teach-glos-white</title><path d="M0,28.7H5.38V22.13l3.07-1.51v8.07h8l-.7,3H8.45V48.4c0,3,1.08,4.25,4.36,4.25h3.28v3H12.76c-4.79,0-7.37-2-7.37-7.1V31.66H.7Z" transform="translate(0 0)" style="fill:#fff"/><path d="M19.48,42.15c0-7.7,5.87-13.88,13.13-13.88,7,0,12.54,4.47,12.75,13.94H22.66c0,6,4.41,11,10.49,11a11.86,11.86,0,0,0,8.4-3.28l1.94,2.15a14.8,14.8,0,0,1-10.33,4A13.53,13.53,0,0,1,19.47,42.71Q19.47,42.43,19.48,42.15Zm3.38-2.69H42c-.59-5.54-4.68-8.34-9.47-8.34A9.91,9.91,0,0,0,22.86,39.46Z" transform="translate(0 0)" style="fill:#fff"/><path d="M72,52A13.11,13.11,0,0,1,62.11,56,13.51,13.51,0,0,1,48.44,42.16c0-7.64,5.65-13.88,13.67-13.88A13,13,0,0,1,72,32.42V28.7l3.07-1.39v28.3H72Zm0-4.14V36.45a11.14,11.14,0,0,0-9.9-5.33c-6.19,0-10.49,5-10.49,11s4.31,11,10.49,11a10.94,10.94,0,0,0,9.9-5.3Z" transform="translate(0 0)" style="fill:#fff"/><path d="M80.62,42.15A13.57,13.57,0,0,1,93.88,28.27h.41a14.56,14.56,0,0,1,10.28,4l-1.94,2.21a11.75,11.75,0,0,0-8.34-3.34c-6.08,0-10.49,5-10.49,11s4.41,11,10.49,11a11.75,11.75,0,0,0,8.34-3.32L104.57,52a14.56,14.56,0,0,1-10.28,4A13.57,13.57,0,0,1,80.62,42.56Q80.62,42.36,80.62,42.15Z" transform="translate(0 0)" style="fill:#fff"/><path d="M109.58,17.4,112.65,16V32.57c2.15-3.23,5.7-4.3,9.26-4.3,5.65,0,9.85,3.87,9.85,10.33v17h-3.07V39c0-5.11-3.07-7.91-7.59-7.91a8.4,8.4,0,0,0-8.45,6.62V55.61h-3.07Z" transform="translate(0 0)" style="fill:#fff"/><path d="M2.75,114.41,8.08,104a18.48,18.48,0,0,0,11.53,4c4.71,0,8.94-1.57,8.94-6.27a5.62,5.62,0,0,0-1-3.29,13.91,13.91,0,0,1-8.71,3C7,101.42.33,92.17.33,82.6S7,63.75,18.86,63.75a13.7,13.7,0,0,1,8.63,3V64.37H39.3V96A19.43,19.43,0,0,1,41,103.67c0,11-10.35,15.15-20.55,15.15C14.52,118.82,8.32,118,2.75,114.41ZM27.46,87.27V77.82a8.83,8.83,0,0,0-7.06-3.29,8,8,0,1,0,0,16A8.83,8.83,0,0,0,27.46,87.27Z" transform="translate(0 0)" style="fill:#fff"/><path d="M61.19,84a20.39,20.39,0,1,1,20.55,20.23h-.16A20.32,20.32,0,0,1,61.19,84Zm28.86,0c0-5.41-3.61-9.18-8.47-9.18S73.11,78.56,73.11,84s3.61,9.18,8.47,9.18S90.05,89.39,90.05,84Z" transform="translate(0 0)" style="fill:#fff"/><path d="M101.66,95.9l9-6.12c1.57,2.82,3.69,4.78,7.22,4.78,1.65,0,3.06-.39,3.06-1.8s-1.1-2-4.94-3.45l-2-.78c-6.82-2.67-10.35-7.06-10.35-12.63,0-7.22,6-12.16,13.49-12.16,5,0,9.41,1.88,12.39,6.2l-6.75,6.67c-1.49-2.12-3.21-3.53-5.65-3.53-1.57,0-2.82.55-2.82,1.8,0,1.57,1.26,2,5.18,3.53l1.65.63c7.45,2.82,10.51,6.9,10.51,12.71,0,8-6.2,12.47-14.2,12.47C110.6,104.21,105,101.82,101.66,95.9Z" transform="translate(0 0)" style="fill:#fff"/><polygon points="45.5 64.37 45.5 103.59 57.34 103.59 57.34 59.39 45.5 64.37" style="fill:#fff"/><path d="M148.54,4.11l-4.86,1.38c-1,9.23-4.56,11.81-6.32,12.52a8.09,8.09,0,0,0,1.06.07c3.08,0,8.87-1.68,10.12-14" transform="translate(0 0)" style="fill:#fff"/><path d="M141.68,5.49v0Z" transform="translate(0 0)" style="fill:#fff"/><path d="M135.36,18c1.76-.71,5.29-3.29,6.32-12.5h0A49.87,49.87,0,0,0,141.95,0l-7.6,6V18.28a3.65,3.65,0,0,0,1-.29Z" transform="translate(0 0)" style="fill:#fff"/><polygon points="141.95 0 141.95 0.01 141.96 0 141.95 0" style="fill:#fff"/><path d="M125.08,0a50.39,50.39,0,0,0,.28,5.49l7.2,2.05V17.82a5.87,5.87,0,0,1-.88.19,3.54,3.54,0,0,0,1,.25V6Z" transform="translate(0 0)" style="fill:#fff"/><path d="M125.36,5.49c1,9.24,4.56,11.81,6.32,12.52.3,0,.69-.15,1,.25V6Z" transform="translate(0 0)" style="fill:#fff"/><path d="M118.5,4.11c1.25,12.29,7,14,10.11,14a8.13,8.13,0,0,0,1.06-.07c-1.76-.71-5.3-3.28-6.32-12.52Z" transform="translate(0 0)" style="fill:#fff"/></svg>